<?xml version="1.0" encoding="UTF-8"?>
<svg width="472px" height="308px" viewBox="0 0 472 308" version="1.1" xmlns="http://www.w3.org/2000/svg" xmlns:xlink="http://www.w3.org/1999/xlink">
    <!-- Generator: Sketch 47.1 (45422) - http://www.bohemiancoding.com/sketch -->
    <title>Illo</title>
    <desc>Created with Sketch.</desc>
    <defs></defs>
    <g id="Page-1" stroke="none" stroke-width="1" fill="none" fill-rule="evenodd">
        <g id="Artboard-2" transform="translate(-193.000000, -207.000000)">
            <g id="Illo" transform="translate(193.000000, 212.000000)">
                <circle id="Oval" fill="#EEEEEE" cx="402.5" cy="43.5" r="8.5"></circle>
                <circle id="Oval" stroke="#FF813F" stroke-width="4" cx="48.5" cy="30.5" r="6.5"></circle>
                <circle id="Oval" stroke="#FFDD00" stroke-width="4" cx="8.5" cy="228.5" r="6.5"></circle>
                <g id="Page-1" opacity="0.400000006" transform="translate(48.000000, 110.000000)">
                    <polygon id="Fill-1" fill="#FF9100" points="62.2844828 36.6720528 14.0086207 36.3818583 37.7155172 185.784636 42.887931 185.784636 90.3017241 185.784636 95.4741379 185.784636 119.181034 36.3818583"></polygon>
                    <polygon id="Fill-2" fill="#FFDD00" points="62.2844828 36.6720528 14.0086207 36.3818583 37.7155172 185.784636 42.887931 185.784636 78.2327586 185.784636 83.4051724 185.784636 107.112069 36.3818583"></polygon>
                    <polygon id="Fill-3" fill="#FFFFFF" points="0.215517241 36.3819444 124.784483 36.3819444 124.784483 22.6041667 0.215517241 22.6041667"></polygon>
                    <polygon id="Stroke-4" stroke="#000000" stroke-width="6.46551724" points="0.215517241 36.3819444 124.784483 36.3819444 124.784483 22.6041667 0.215517241 22.6041667"></polygon>
                    <polygon id="Fill-6" fill="#FFFFFF" points="100.646552 0.215277778 70.9051724 0.215277778 53.2327586 0.215277778 23.4913793 0.215277778 14.4396552 20.8819444 53.2327586 20.8819444 70.9051724 20.8819444 109.698276 20.8819444"></polygon>
                    <g id="Group-11" transform="translate(5.172414, 0.000000)" stroke-width="6.46551724">
                        <polygon id="Stroke-7" stroke="#050505" points="95.4741379 0.215277778 65.7327586 0.215277778 48.0603448 0.215277778 18.3189655 0.215277778 9.26724138 20.8819444 48.0603448 20.8819444 65.7327586 20.8819444 104.525862 20.8819444"></polygon>
                        <polygon id="Stroke-9" stroke="#000000" points="57.112069 36.6720528 0.215517241 36.3818583 23.9224138 185.784636 29.0948276 185.784636 85.1293103 185.784636 90.3017241 185.784636 114.008621 36.3818583"></polygon>
                    </g>
                    <polygon id="Fill-12" fill="#FFFFFF" points="120.905172 78.5763889 64.1116379 78.5763889 60.0262931 78.5763889 3.23275862 78.5763889 13.8560345 137.993056 62.0689655 137.475097 110.281897 137.993056"></polygon>
                    <polygon id="Stroke-13" stroke="#000000" stroke-width="6.46551724" points="120.905172 78.5763889 64.1116379 78.5763889 60.0262931 78.5763889 3.23275862 78.5763889 13.8560345 137.993056 62.0689655 137.475097 110.281897 137.993056"></polygon>
                </g>
                <g id="Page-1" opacity="0.400000006" transform="translate(306.000000, 110.000000)">
                    <polygon id="Fill-1" fill="#FF9100" points="62.2844828 36.6720528 14.0086207 36.3818583 37.7155172 185.784636 42.887931 185.784636 90.3017241 185.784636 95.4741379 185.784636 119.181034 36.3818583"></polygon>
                    <polygon id="Fill-2" fill="#FFDD00" points="62.2844828 36.6720528 14.0086207 36.3818583 37.7155172 185.784636 42.887931 185.784636 78.2327586 185.784636 83.4051724 185.784636 107.112069 36.3818583"></polygon>
                    <polygon id="Fill-3" fill="#FFFFFF" points="0.215517241 36.3819444 124.784483 36.3819444 124.784483 22.6041667 0.215517241 22.6041667"></polygon>
                    <polygon id="Stroke-4" stroke="#000000" stroke-width="6.46551724" points="0.215517241 36.3819444 124.784483 36.3819444 124.784483 22.6041667 0.215517241 22.6041667"></polygon>
                    <polygon id="Fill-6" fill="#FFFFFF" points="100.646552 0.215277778 70.9051724 0.215277778 53.2327586 0.215277778 23.4913793 0.215277778 14.4396552 20.8819444 53.2327586 20.8819444 70.9051724 20.8819444 109.698276 20.8819444"></polygon>
                    <g id="Group-11" transform="translate(5.172414, 0.000000)" stroke-width="6.46551724">
                        <polygon id="Stroke-7" stroke="#050505" points="95.4741379 0.215277778 65.7327586 0.215277778 48.0603448 0.215277778 18.3189655 0.215277778 9.26724138 20.8819444 48.0603448 20.8819444 65.7327586 20.8819444 104.525862 20.8819444"></polygon>
                        <polygon id="Stroke-9" stroke="#000000" points="57.112069 36.6720528 0.215517241 36.3818583 23.9224138 185.784636 29.0948276 185.784636 85.1293103 185.784636 90.3017241 185.784636 114.008621 36.3818583"></polygon>
                    </g>
                    <polygon id="Fill-12" fill="#FFFFFF" points="120.905172 78.5763889 64.1116379 78.5763889 60.0262931 78.5763889 3.23275862 78.5763889 13.8560345 137.993056 62.0689655 137.475097 110.281897 137.993056"></polygon>
                    <polygon id="Stroke-13" stroke="#000000" stroke-width="6.46551724" points="120.905172 78.5763889 64.1116379 78.5763889 60.0262931 78.5763889 3.23275862 78.5763889 13.8560345 137.993056 62.0689655 137.475097 110.281897 137.993056"></polygon>
                </g>
                <g id="Page-1" transform="translate(139.000000, 0.000000)">
                    <polygon id="Fill-1" fill="#FF9100" points="99.6551724 58.7541491 22.4137931 58.2892139 60.3448276 297.654955 68.6206897 297.654955 144.482759 297.654955 152.758621 297.654955 190.689655 58.2892139"></polygon>
                    <polygon id="Fill-2" fill="#FFDD00" points="99.6551724 58.7541491 22.4137931 58.2892139 60.3448276 297.654955 68.6206897 297.654955 125.172414 297.654955 133.448276 297.654955 171.37931 58.2892139"></polygon>
                    <polygon id="Fill-3" fill="#FFFFFF" points="0.344827586 58.2893519 199.655172 58.2893519 199.655172 36.2152778 0.344827586 36.2152778"></polygon>
                    <polygon id="Stroke-4" stroke="#000000" stroke-width="10.3448276" points="0.344827586 58.2893519 199.655172 58.2893519 199.655172 36.2152778 0.344827586 36.2152778"></polygon>
                    <polygon id="Fill-6" fill="#FFFFFF" points="161.034483 0.344907407 113.448276 0.344907407 85.1724138 0.344907407 37.5862069 0.344907407 23.1034483 33.4560185 85.1724138 33.4560185 113.448276 33.4560185 175.517241 33.4560185"></polygon>
                    <g id="Group-11" transform="translate(8.275862, 0.000000)" stroke-width="10.3448276">
                        <polygon id="Stroke-7" stroke="#050505" points="152.758621 0.344907407 105.172414 0.344907407 76.8965517 0.344907407 29.3103448 0.344907407 14.8275862 33.4560185 76.8965517 33.4560185 105.172414 33.4560185 167.241379 33.4560185"></polygon>
                        <polygon id="Stroke-9" stroke="#000000" points="91.3793103 58.7541491 0.344827586 58.2892139 38.2758621 297.654955 46.5517241 297.654955 136.206897 297.654955 144.482759 297.654955 182.413793 58.2892139"></polygon>
                    </g>
                    <polygon id="Fill-12" fill="#FFFFFF" points="193.448276 125.891204 102.578621 125.891204 96.042069 125.891204 5.17241379 125.891204 22.1696552 221.085648 99.3103448 220.255801 176.451034 221.085648"></polygon>
                    <polygon id="Stroke-13" stroke="#000000" stroke-width="10.3448276" points="193.448276 125.891204 102.578621 125.891204 96.042069 125.891204 5.17241379 125.891204 22.1696552 221.085648 99.3103448 220.255801 176.451034 221.085648"></polygon>
                </g>
                <path d="M466,257 L466,254 C466,252.343146 464.656854,251 463,251 L462,251 C460.343146,251 459,252.343146 459,254 L459,254 L459,257 L456,257 C454.343146,257 453,258.343146 453,260 L453,260 L453,261 L453,261 C453,262.656854 454.343146,264 456,264 L456,264 L459,264 L459,267 C459,268.656854 460.343146,270 462,270 L463,270 C464.656854,270 466,268.656854 466,267 L466,264 L469,264 C470.656854,264 472,262.656854 472,261 L472,260 C472,258.343146 470.656854,257 469,257 L466,257 Z" id="Combined-Shape" fill="#FFDD00"></path>
            </g>
        </g>
    </g>
</svg>